<?xml version="1.0" standalone="no"?><!DOCTYPE svg PUBLIC "-//W3C//DTD SVG 1.1//EN" "http://www.w3.org/Graphics/SVG/1.1/DTD/svg11.dtd"><svg t="1675002033151" class="icon" viewBox="0 0 1024 1024" version="1.1" xmlns="http://www.w3.org/2000/svg" p-id="7908" xmlns:xlink="http://www.w3.org/1999/xlink" width="200" height="200"><path d="M768 512h-128l170.666667 170.666667 170.666666-170.666667h-128c0-188.586667-152.746667-341.333333-341.333333-341.333333-66.986667 0-129.28 19.626667-181.76 52.906666L392.533333 285.866667c35.413333-19.2 76.373333-29.866667 119.466667-29.866667 141.226667 0 256 114.773333 256 256z m-74.24 288.426667L631.466667 738.133333c-35.84 18.773333-76.373333 29.866667-119.466667 29.866667-141.226667 0-256-114.773333-256-256h128L213.333333 341.333333l-170.666666 170.666667h128c0 188.586667 152.746667 341.333333 341.333333 341.333333 66.986667 0 129.28-19.626667 181.76-52.906666z" fill="#2c2c2c" p-id="7909" data-spm-anchor-id="a313x.7781069.0.i3" class=""></path></svg>